<svg xmlns="http://www.w3.org/2000/svg" xmlns:xlink="http://www.w3.org/1999/xlink" width="106" height="80" version="1.1" viewBox="0 0 106 80"><title>Box</title><desc>Created with Sketch.</desc><defs><path id="path-1" d="M0.571428571,4.89285714 C0.78839758,4.89285714 0.964285714,5.06874528 0.964285714,5.28571429 L0.964285714,5.28571429 L0.964285714,7.64285714 C0.964285714,7.85982615 1.14017385,8.03571429 1.35714286,8.03571429 L1.35714286,8.03571429 L7.71265614,10.0344959 C7.92962515,10.0344959 8.10551328,9.85860781 8.10551328,9.6416388 L8.10551328,9.6416388 L8.10551328,7.28449594 C8.10551328,7.06752693 8.28140141,6.8916388 8.49837042,6.8916388 C8.71533943,6.8916388 8.89122756,7.06752693 8.89122756,7.28449594 L8.89122756,7.28449594 L8.89122756,9.6416388 C8.89122756,10.2925458 8.36356316,10.8202102 7.71265614,10.8202102 L7.71265614,10.8202102 L1.35714286,8.82142857 C0.706235831,8.82142857 0.178571429,8.29376417 0.178571429,7.64285714 L0.178571429,7.64285714 L0.178571429,5.28571429 C0.178571429,5.06874528 0.354459563,4.89285714 0.571428571,4.89285714 Z M4.60714286,0.178571429 C4.88328523,0.178571429 5.10714286,0.354459563 5.10714286,0.571428571 L5.10714286,0.571428571 L5.10657143,4.70457143 L5.79863479,4.04239211 C5.95205505,3.88897186 6.20079844,3.88897186 6.35421869,4.04239211 C6.50763895,4.19581237 6.50763895,4.44455576 6.35421869,4.59797601 L5.33837402,5.61382068 C4.87811325,6.07408146 4.12688492,5.79363662 3.66662415,5.33337585 L2.65077948,4.31753118 C2.49735922,4.16411092 2.49735922,3.91536754 2.65077948,3.76194728 C2.80419974,3.60852702 3.05294312,3.60852702 3.20636338,3.76194728 L4.10657143,4.66257143 L4.10714286,0.571428571 C4.10714286,0.37856723 4.28401802,0.218164852 4.51726722,0.184900883 Z"/></defs><g id="Onboard_ONOV-2019" fill="none" fill-rule="evenodd" stroke="none" stroke-width="1"><g id="Deposit_Empty" transform="translate(-135.000000, -340.000000)"><g id="Empty-state" transform="translate(125.000000, 341.000000)"><g id="Box" transform="translate(11.000000, 0.000000)"><polygon id="Rectangle" fill="#E4E7ED" stroke="#ABB2C2" stroke-linejoin="round" points="7.9 14.252 50.131 0 90.823 14.252 90.823 62.428 50.131 77.923 7.9 62.428"/><path id="Combined-Shape" fill="#FFF" stroke="#ABB2C2" stroke-linejoin="round" d="M49.9991619,0.045 L49.9991619,77.875 L7.90016189,62.4281903 L7.90016189,14.2521976 L49.9991619,0.045 Z"/><polygon id="Rectangle-Copy-3" fill="#FFF" stroke="#ABB2C2" stroke-linejoin="round" points="63.385 14.252 104 29.346 90.447 46.538 50.208 29.346" transform="translate(77.103927, 30.395330) scale(-1, 1) translate(-77.103927, -30.395330)"/><polygon id="Rectangle-Copy-2" fill="#E4E7ED" stroke="#ABB2C2" stroke-linejoin="round" points="7.9 14.421 50.131 0 90.823 14.421 50.131 29.615"/><polyline id="Path-Copy" fill="#FFF" stroke="#ABB2C2" stroke-linecap="round" stroke-linejoin="round" points="90.823 29.615 50 14.421 90.823 0" transform="translate(70.411619, 14.807692) scale(-1, 1) translate(-70.411619, -14.807692)"/><polygon id="Path" fill="#E4E7ED" stroke="#ABB2C2" stroke-linejoin="round" points="7.757 15 0 24.957 7.757 24.957"/><ellipse id="Oval" cx="28.557" cy="45.266" fill="#E4E7ED" rx="9.583" ry="11.5" transform="translate(28.556546, 45.265769) rotate(-25.000000) translate(-28.556546, -45.265769)"/><g id="icon14/019-Download" transform="translate(28.465101, 46.499391) rotate(2.000000) translate(-28.465101, -46.499391) translate(23.965101, 40.999391)"><mask id="mask-2" fill="#fff"><use xlink:href="#path-1"/></mask><use id="Mask" fill="#ABB2C2" fill-rule="nonzero" xlink:href="#path-1"/></g></g></g></g></g></svg>