<svg xmlns="http://www.w3.org/2000/svg" xmlns:xlink="http://www.w3.org/1999/xlink" width="106" height="80" version="1.1" viewBox="0 0 106 80"><title>Box</title><desc>Created with Sketch.</desc><defs><path id="path-1" d="M0.571428571,4.89285714 C0.78839758,4.89285714 0.964285714,5.06874528 0.964285714,5.28571429 L0.964285714,5.28571429 L0.964285714,7.64285714 C0.964285714,7.85982615 1.14017385,8.03571429 1.35714286,8.03571429 L1.35714286,8.03571429 L7.64285714,10.0357143 C7.85982615,10.0357143 8.03571429,9.85982615 8.03571429,9.64285714 L8.03571429,9.64285714 L8.03571429,7.28571429 C8.03571429,7.06874528 8.21160242,6.89285714 8.42857143,6.89285714 C8.64554044,6.89285714 8.82142857,7.06874528 8.82142857,7.28571429 L8.82142857,7.28571429 L8.82142857,9.64285714 C8.82142857,10.2937642 8.29376417,10.8214286 7.64285714,10.8214286 L7.64285714,10.8214286 L1.35714286,8.82142857 C0.706235831,8.82142857 0.178571429,8.29376417 0.178571429,7.64285714 L0.178571429,7.64285714 L0.178571429,5.28571429 C0.178571429,5.06874528 0.354459563,4.89285714 0.571428571,4.89285714 Z M5.33337585,0.961128194 L6.34922052,1.97697287 C6.50264078,2.13039312 6.50264078,2.37913651 6.34922052,2.53255677 C6.19580026,2.68597702 5.94705688,2.68597702 5.79363662,2.53255677 L4.99957143,1.73839983 L5,5.71428571 C5,5.90714706 4.82312484,6.06754943 4.58987563,6.1008134 L4.5,6.10714286 C4.22385763,6.10714286 4,5.93125472 4,5.71428571 L4,5.71428571 L4,1.39285714 C4,1.35231243 4.00781709,1.31320226 4.02233167,1.2764063 L3.20636338,2.09519558 C3.05294312,2.24861584 2.80419974,2.24861584 2.65077948,2.09519558 C2.49735922,1.94177532 2.49735922,1.69303194 2.65077948,1.53961168 L3.66662415,0.523767008 C4.12688492,0.0635062355 4.62437169,0.212243102 5.33337585,0.961128194 Z"/></defs><g id="Onboard_ONOV-2019" fill="none" fill-rule="evenodd" stroke="none" stroke-width="1"><g id="Exit_Empty" transform="translate(-135.000000, -340.000000)"><g id="Empty-state" transform="translate(135.000000, 341.000000)"><g id="Box" transform="translate(1.000000, 0.000000)"><polygon id="Rectangle" fill="#E4E7ED" stroke="#ABB2C2" stroke-linejoin="round" points="7.9 14.252 50.131 0 90.823 14.252 90.823 62.428 50.131 77.923 7.9 62.428"/><path id="Combined-Shape" fill="#FFF" stroke="#ABB2C2" stroke-linejoin="round" d="M49.9991619,0.045 L49.9991619,77.875 L7.90016189,62.4281903 L7.90016189,14.2521976 L49.9991619,0.045 Z"/><polygon id="Rectangle-Copy-3" fill="#FFF" stroke="#ABB2C2" stroke-linejoin="round" points="63.385 14.252 104 29.346 90.447 46.538 50.208 29.346" transform="translate(77.103927, 30.395330) scale(-1, 1) translate(-77.103927, -30.395330)"/><polygon id="Rectangle-Copy-2" fill="#E4E7ED" stroke="#ABB2C2" stroke-linejoin="round" points="7.9 14.421 50.131 0 90.823 14.421 50.131 29.615"/><polyline id="Path-Copy" fill="#FFF" stroke="#ABB2C2" stroke-linecap="round" stroke-linejoin="round" points="90.823 29.615 50 14.421 90.823 0" transform="translate(70.411619, 14.807692) scale(-1, 1) translate(-70.411619, -14.807692)"/><polygon id="Path" fill="#E4E7ED" stroke="#ABB2C2" stroke-linejoin="round" points="7.757 15 0 24.957 7.757 24.957"/><ellipse id="Oval" cx="28.557" cy="45.266" fill="#E4E7ED" rx="9.583" ry="11.5" transform="translate(28.556546, 45.265769) rotate(-25.000000) translate(-28.556546, -45.265769)"/><g id="icon14/018-Upload" transform="translate(24.000000, 41.000000)"><mask id="mask-2" fill="#fff"><use xlink:href="#path-1"/></mask><use id="Mask" fill="#ABB2C2" fill-rule="nonzero" xlink:href="#path-1"/></g></g></g></g></g></svg>