<svg xmlns="http://www.w3.org/2000/svg" xmlns:xlink="http://www.w3.org/1999/xlink" width="106" height="80" version="1.1" viewBox="0 0 106 80"><title>Box</title><desc>Created with Sketch.</desc><g id="Onboard_ONOV-2019" fill="none" fill-rule="evenodd" stroke="none" stroke-linejoin="round" stroke-width="1"><g id="Transactions_Empty" stroke="#ABB2C2" transform="translate(-135.000000, -340.000000)"><g id="Empty-state" transform="translate(115.000000, 341.000000)"><g id="Box" transform="translate(21.000000, 0.000000)"><polygon id="Rectangle" fill="#E4E7ED" points="7.9 14.252 50.131 0 90.823 14.252 90.823 62.428 50.131 77.923 7.9 62.428"/><path id="Combined-Shape" fill="#FFF" d="M49.9991619,0.045 L49.9991619,77.875 L7.90016189,62.4281903 L7.90016189,14.2521976 L49.9991619,0.045 Z"/><polygon id="Rectangle-Copy-3" fill="#FFF" points="63.385 14.252 104 29.346 90.447 46.538 50.208 29.346" transform="translate(77.103927, 30.395330) scale(-1, 1) translate(-77.103927, -30.395330)"/><polygon id="Rectangle-Copy-2" fill="#E4E7ED" points="7.9 14.421 50.131 0 90.823 14.421 50.131 29.615"/><polyline id="Path-Copy" fill="#FFF" stroke-linecap="round" points="90.823 29.615 50 14.421 90.823 0" transform="translate(70.411619, 14.807692) scale(-1, 1) translate(-70.411619, -14.807692)"/><polygon id="Path" fill="#E4E7ED" points="7.757 15 0 24.957 7.757 24.957"/></g></g></g></g></svg>