<svg xmlns="http://www.w3.org/2000/svg" xmlns:xlink="http://www.w3.org/1999/xlink" width="112" height="80" version="1.1" viewBox="0 0 112 80"><title>Box</title><desc>Created with Sketch.</desc><g id="Onboard_ONOV-2019" fill="none" fill-rule="evenodd" stroke="none" stroke-width="1"><g id="History_Empty-state" stroke="#ABB2C2" transform="translate(-132.000000, -499.000000)"><g id="Empty-state" transform="translate(93.000000, 500.000000)"><g id="Box" transform="translate(39.000000, 0.000000)"><polygon id="Rectangle" fill="#E4E7ED" stroke-linejoin="round" points="13.9 14.252 56.131 0 96.823 14.252 96.823 62.428 56.131 77.923 13.9 62.428"/><path id="Combined-Shape" fill="#FFF" stroke-linejoin="round" d="M55.9991619,0.045 L55.9991619,77.875 L13.9001619,62.4281903 L13.9001619,14.2521976 L55.9991619,0.045 Z"/><polygon id="Rectangle" fill="#FFF" stroke-linejoin="round" points="13.291 14.35 56 29.615 42.45 46.782 .684 29.713"/><polygon id="Rectangle-Copy-3" fill="#FFF" stroke-linejoin="round" points="69.205 14.35 110.914 29.346 97.361 46.538 56.208 30.22" transform="translate(83.560976, 30.444142) scale(-1, 1) translate(-83.560976, -30.444142)"/><polygon id="Rectangle-Copy-2" points="13.9 14.421 56.131 0 96.823 14.421 56.131 29.615"/><polyline id="Path" fill="#E4E7ED" stroke-linecap="round" stroke-linejoin="round" points="56.131 29.615 13.9 14.421 56.131 0"/><polyline id="Path-Copy" fill="#FFF" stroke-linecap="round" stroke-linejoin="round" points="98.231 29.615 56 14.421 98.231 0" transform="translate(77.115581, 14.807692) scale(-1, 1) translate(-77.115581, -14.807692)"/></g></g></g></g></svg>