<svg xmlns="http://www.w3.org/2000/svg" xmlns:xlink="http://www.w3.org/1999/xlink" width="105" height="76" version="1.1" viewBox="0 0 105 76"><title>Group 8</title><desc>Created with Sketch.</desc><g id="Onboard_ONOV-2019" fill="none" fill-rule="evenodd" stroke="none" stroke-width="1"><g id="Empty-wallet_After-dismiss-tooltip" transform="translate(-122.000000, -368.000000)"><g id="Receive_Empty_Option1" transform="translate(93.000000, 369.000000)"><g id="Group-9"><g id="Group-8" transform="translate(29.000000, 0.000000)"><path id="Rectangle" fill="#E4E7ED" stroke="#ABB2C2" d="M17.25,0 L99.5,0 C101.709139,-4.05812251e-16 103.5,1.790861 103.5,4 L103.5,69.75 C103.5,71.959139 101.709139,73.75 99.5,73.75 L17.25,73.75 L17.25,73.75 L17.25,0 Z"/><g id="ETH" stroke="#FFF" stroke-linecap="round" stroke-linejoin="round" stroke-width="2.3" transform="translate(49.000000, 21.000000)"><polygon id="Path-4" points="0 19.706 12 0 24 19.706 12 38.824"/><polyline id="Path-5" points="23.077 19.385 12 26.028 .923 19.385"/><polyline id="Path-6" points="12 0 12 24.182 12 35.186"/></g><path id="Shape" stroke="#ABB2C2" d="M17.25,73.75 L1,73.75 M1,0 L17.25,0"/><line id="Line-4" x1="104.125" x2="17.875" y1="9.375" y2="9.375" stroke="#FFF" stroke-linecap="square"/><line id="Line-4-Copy" x1="16.875" x2="1.25" y1="9.375" y2="9.375" stroke="#E4E7ED" stroke-linecap="square"/></g></g></g></g></g></svg>