<svg xmlns="http://www.w3.org/2000/svg" width="90" height="68" viewBox="0 0 90 68"><defs><style>.a,.b,.e{fill:none}.b{stroke:#acbafe;stroke-width:4px}.c{fill:#4967ff}.d{fill:#101010}.e{stroke:#101010;stroke-linecap:round;stroke-width:3px}.f{stroke:none}</style></defs><g transform="translate(-44 -137)"><rect width="90" height="68" class="a" transform="translate(44 137)"/><g class="b"><path d="M12,0h4A12,12,0,0,1,28,12V29a0,0,0,0,1,0,0H0a0,0,0,0,1,0,0V12A12,12,0,0,1,12,0Z" class="f" transform="translate(75 137)"/><path d="M12,2h4A10,10,0,0,1,26,12V25a2,2,0,0,1-2,2H4a2,2,0,0,1-2-2V12A10,10,0,0,1,12,2Z" class="a" transform="translate(75 137)"/></g><rect width="50" height="44" class="c" transform="translate(64 161)"/><g transform="translate(0 -1)"><circle cx="3.5" cy="3.5" r="3.5" class="d" transform="translate(86 178)"/><line y2="5" class="e" transform="translate(89.5 184.5)"/></g></g></svg>