<svg xmlns="http://www.w3.org/2000/svg" xmlns:xlink="http://www.w3.org/1999/xlink" width="212" height="126" version="1.1" viewBox="0 0 212 126"><title>Wallet</title><desc>Created with Sketch.</desc><g id="Onboard_ONOV-2019" fill="none" fill-rule="evenodd" stroke="none" stroke-width="1"><g id="New-wallet_2" transform="translate(-81.000000, -586.000000)"><g id="OB2" transform="translate(0.000000, 507.000000)"><g id="Wallet" transform="translate(81.000000, 80.000000)"><g transform="translate(0.000000, 32.000000)"><path id="solid" fill="#FFF" d="M9,0 L106,0 L106,0 L106,92 L9,92 C4.581722,92 1,88.418278 1,84 L1,8 C1,3.581722 4.581722,8.11624501e-16 9,0 Z"/><rect id="border" width="210" height="92" x="1" y="0" stroke="#FFF" rx="8"/><path id="Combined-Shape" fill="#1A56F0" fill-rule="nonzero" d="M45.6484706,47.0165737 C50.0541212,47.0165737 53.6256067,50.5880591 53.6256067,54.9937098 C53.6256067,59.3993604 50.0541212,62.9708459 45.6484706,62.9708459 C41.24282,62.9708459 37.6713345,59.3993604 37.6713345,54.9937098 C37.6713345,50.5880591 41.24282,47.0165737 45.6484706,47.0165737 Z M45.6484706,49.4352587 C42.5770611,49.4352587 40.0871917,51.925128 40.0871917,54.9965375 C40.0871917,58.067947 42.5770611,60.5578164 45.6484706,60.5578164 C48.7177282,60.5526274 51.2045605,58.0657951 51.2097495,54.9965375 C51.2097495,51.925128 48.7198801,49.4352587 45.6484706,49.4352587 Z M53.6237215,30.0000015 L53.6237215,32.4130324 L51.3615064,32.4130324 C54.0111591,35.1340478 54.376238,39.3453657 52.2343635,42.4817583 C50.0924891,45.6181509 46.0370754,46.8106693 42.5383846,45.3329184 C39.0396939,43.8551675 37.067051,40.1165634 37.8220461,36.3943911 C38.5770412,32.6722187 41.8505002,29.9977194 45.6484706,30.0000015 L45.6484706,30.0000015 L53.6237215,30.0000015 Z M62.6848357,30.0000029 C67.0904863,30.0000029 70.6619718,33.5714884 70.6619718,37.977139 C70.6619718,42.3827896 67.0904863,45.9542751 62.6848357,45.9542751 C58.2791851,45.9542751 54.7076996,42.3827896 54.7076996,37.977139 C54.7076996,33.5714884 58.2791851,30.0000029 62.6848357,30.0000029 Z M62.6848357,32.4186879 C59.6134262,32.4186879 57.1235569,34.9085573 57.1235569,37.9799668 C57.1235569,41.0513763 59.6134262,43.5412457 62.6848357,43.5412457 C65.7540933,43.5360567 68.2409256,41.0492244 68.2461146,37.9799668 C68.2461146,34.9085573 65.7562452,32.4186879 62.6848357,32.4186879 Z M45.6484706,32.4158602 C42.5770611,32.4158602 40.0871917,34.9057295 40.0871917,37.977139 C40.0871917,41.0485485 42.5770611,43.5384179 45.6484706,43.5384179 C48.7198801,43.5384179 51.2097495,41.0485485 51.2097495,37.977139 L51.2097495,37.977139 C51.2073842,34.9067794 48.7188325,32.4194924 45.6484706,32.4158602 Z"/><g id="ETH" stroke="#FFF" stroke-linecap="round" stroke-linejoin="round" stroke-width="2.3" transform="translate(148.661972, 29.000000)"><polygon id="Path-4" points="0 17.243 10.5 0 21 17.243 10.5 33.971"/><polyline id="Path-5" points="20.192 16.962 10.5 22.775 .808 16.962"/><polyline id="Path-6" points="10.5 0 10.5 21.159 10.5 30.787"/></g><line id="Path" x1="0" x2="106" y1="13.5" y2="13.5" stroke="#2176FF"/><line id="Path-Copy" x1="106" x2="211" y1="13.5" y2="13.5" stroke="#FFF"/></g><g id="You're-here" transform="translate(19.661972, 0.000000)"><rect id="Rectangle" width="72" height="21" x="0" y="0" fill="#0F3AAA" stroke="#0F3AAA" rx="10.5"/><text id="You’re-here" fill="#FFF" font-family="MessinaSans-Book" font-size="10" font-weight="bold"><tspan x="10.035" y="14">You’re here</tspan></text><path id="Line-6" fill="#0F3AAA" fill-rule="nonzero" d="M37,21 L37.0007074,28.0275426 C39.2503421,28.2765864 41,30.1839659 41,32.5 C41,34.9852814 38.9852814,37 36.5,37 C34.0147186,37 32,34.9852814 32,32.5 C32,30.1836212 33.7501788,28.2760186 36.000297,28.0274316 L36,21 L37,21 Z"/></g><text id="Plasma-pocket" fill="#1A56F0" font-family="MessinaSans-Book" font-size="10" font-weight="300"><tspan x="18.972" y="112">Plasma pocket</tspan></text><text id="Ethereum-pocket" fill="#FFF" font-family="MessinaSans-Book" font-size="10" font-weight="300"><tspan x="121.662" y="112">Ethereum pocket</tspan></text></g></g></g></g></svg>